<svg version="1.2" baseProfile="tiny-ps" xmlns="http://www.w3.org/2000/svg" viewBox="0 0 1494 612" width="1494" height="612">
	<title>SDL_LOGO_210419-ai</title>
	<defs>
		<linearGradient id="grd1" gradientUnits="userSpaceOnUse"  x1="457.631" y1="290.292" x2="1271.043" y2="439.992">
			<stop offset="0" stop-color="#fc3b84"  />
			<stop offset="0.282" stop-color="#4b2b95"  />
			<stop offset="0.575" stop-color="#1f82c8"  />
			<stop offset="0.793" stop-color="#2daf9f"  />
			<stop offset="1" stop-color="#3cbc76"  />
		</linearGradient>
		<linearGradient id="grd2" gradientUnits="userSpaceOnUse"  x1="381.895" y1="115.587" x2="1150.879" y2="257.11">
			<stop offset="0" stop-color="#fc3b84"  />
			<stop offset="0.282" stop-color="#4b2b95"  />
			<stop offset="0.575" stop-color="#1f82c8"  />
			<stop offset="0.793" stop-color="#2daf9f"  />
			<stop offset="1" stop-color="#3cbc76"  />
		</linearGradient>
	</defs>
	<style>
		tspan { white-space:pre }
		.shp0 { fill: #ff301b } 
		.shp1 { fill: url(#grd1) } 
		.shp2 { fill: url(#grd2) } 
		.shp3 { fill: #842b95 } 
		.shp4 { fill: #ff8f29 } 
		.shp5 { fill: #87c847 } 
		.shp6 { fill: #f93399 } 
		.shp7 { fill: #ffc734 } 
		.shp8 { fill: #3bb6e6 } 
		.shp9 { fill: #103293 } 
	</style>
	<g id="Layer 1">
		<g id="&lt;Group&gt;">
			<g id="&lt;Group&gt;">
				<g id="&lt;Group&gt;">
					<path id="&lt;Compound Path&gt;" class="shp0" d="M290.55 545.38C290.55 508.08 318.25 479.48 356.45 479.48C379.44 479.48 399.71 490.88 410.76 508.81L385.77 523.29C380.16 513.51 369.3 507.72 356.45 507.72C334 507.72 319.51 522.74 319.51 545.38C319.51 568 334 583.03 356.45 583.03C369.3 583.03 380.34 577.24 385.77 567.46L410.76 581.95C399.9 599.87 379.62 611.27 356.45 611.27C318.25 611.27 290.55 582.67 290.55 545.38Z" />
				</g>
			</g>
			<g id="&lt;Group&gt;">
				<g id="&lt;Group&gt;">
					<path id="&lt;Compound Path&gt;" class="shp0" d="M1073.85 545.38C1073.85 508.08 1101.55 479.48 1139.75 479.48C1162.74 479.48 1183.01 490.88 1194.06 508.81L1169.07 523.29C1163.46 513.51 1152.6 507.72 1139.75 507.72C1117.3 507.72 1102.81 522.74 1102.81 545.38C1102.81 568 1117.3 583.03 1139.75 583.03C1152.6 583.03 1163.64 577.24 1169.07 567.46L1194.06 581.95C1183.2 599.87 1162.92 611.27 1139.75 611.27C1101.55 611.27 1073.85 582.67 1073.85 545.38Z" />
				</g>
			</g>
			<g id="&lt;Group&gt;">
				<g id="&lt;Group&gt;">
					<path id="&lt;Compound Path&gt;" class="shp0" d="M572.95 482.01L572.95 608.74L543.98 608.74L543.98 482.01L572.95 482.01Z" />
				</g>
			</g>
			<g id="&lt;Group&gt;">
				<g id="&lt;Group&gt;">
					<path id="&lt;Compound Path&gt;" class="shp0" d="M1241.37 482.01L1241.37 608.74L1212.4 608.74L1212.4 482.01L1241.37 482.01Z" />
				</g>
			</g>
			<g id="&lt;Group&gt;">
				<g id="&lt;Group&gt;">
					<path id="&lt;Compound Path&gt;" class="shp0" d="M796.67 482.01L796.67 608.74L767.71 608.74L767.71 482.01L796.67 482.01Z" />
				</g>
			</g>
			<g id="&lt;Group&gt;">
				<g id="&lt;Group&gt;">
					<path id="&lt;Compound Path&gt;" class="shp0" d="M744.86 608.74L715.89 608.74L715.89 535.05L683.13 588.82L679.87 588.82L647.1 535.05L647.1 608.74L618.13 608.74L618.13 482.01L647.1 482.01L681.5 538.31L715.89 482.01L744.86 482.01L744.86 608.74Z" />
				</g>
			</g>
			<g id="&lt;Group&gt;">
				<g id="&lt;Group&gt;">
					<path id="&lt;Compound Path&gt;" class="shp0" d="M919.09 482.01L919.09 608.74L897.36 608.74L848.48 539.94L848.48 608.74L819.52 608.74L819.52 482.01L841.24 482.01L890.12 550.81L890.12 482.01L919.09 482.01Z" />
				</g>
			</g>
			<g id="&lt;Group&gt;">
				<g id="&lt;Group&gt;">
					<path id="&lt;Compound Path&gt;" fill-rule="evenodd" class="shp0" d="M118.6 545.37C118.6 508.08 148.11 479.48 184.5 479.48C220.89 479.48 250.4 508.08 250.4 545.37C250.4 582.67 220.89 611.27 184.5 611.27C148.11 611.27 118.6 582.67 118.6 545.37ZM221.43 545.37C221.43 522.75 205.14 507.72 184.5 507.72C163.86 507.72 147.57 522.75 147.57 545.37C147.57 568 163.86 583.03 184.5 583.03C205.14 583.03 221.43 568 221.43 545.37Z" />
				</g>
			</g>
			<g id="&lt;Group&gt;">
				<g id="&lt;Group&gt;">
					<path id="&lt;Compound Path&gt;" class="shp0" d="M1353.85 509.89L1321.26 509.89L1321.26 608.74L1292.29 608.74L1292.29 509.89L1259.71 509.89L1259.71 482.01L1353.85 482.01L1353.85 509.89Z" />
				</g>
			</g>
			<g id="&lt;Group&gt;">
				<g id="&lt;Group&gt;">
					<path id="&lt;Compound Path&gt;" class="shp0" d="M1443.7 560.04L1443.7 608.74L1414.73 608.74L1414.73 560.04L1372.19 482.01L1405.14 482.01L1429.22 530.89L1453.29 482.01L1486.24 482.01L1443.7 560.04Z" />
				</g>
			</g>
			<g id="&lt;Group&gt;">
				<g id="&lt;Group&gt;">
					<path id="&lt;Compound Path&gt;" class="shp0" d="M1039.7 482.01L1039.7 608.74L1010.73 608.74L1010.73 558.41L970.9 558.41L970.9 608.74L941.94 608.74L941.94 482.01L970.9 482.01L970.9 530.53L1010.73 530.53L1010.73 482.01L1039.7 482.01Z" />
				</g>
				<path id="&lt;Path&gt;" class="shp0" d="" />
			</g>
			<g id="&lt;Group&gt;">
				<g id="&lt;Group&gt;">
					<path id="&lt;Compound Path&gt;" class="shp0" d="M521.99 482.01L521.99 608.74L493.02 608.74L493.02 558.41L453.19 558.41L453.19 608.74L424.23 608.74L424.23 482.01L453.19 482.01L453.19 530.53L493.02 530.53L493.02 482.01L521.99 482.01Z" />
				</g>
				<path id="&lt;Path&gt;" class="shp0" d="" />
			</g>
			<g id="&lt;Group&gt;">
				<g id="&lt;Group&gt;">
					<path id="&lt;Compound Path&gt;" class="shp0" d="M98.79 482.01L98.79 608.74L69.83 608.74L69.83 558.41L30 558.41L30 608.74L1.03 608.74L1.03 482.01L30 482.01L30 530.53L69.83 530.53L69.83 482.01L98.79 482.01Z" />
				</g>
				<path id="&lt;Path&gt;" class="shp0" d="" />
			</g>
		</g>
		<g id="&lt;Group&gt;">
			<g id="&lt;Group&gt;">
				<g id="&lt;Group&gt;">
					<path id="&lt;Path&gt;" class="shp1" d="M645.69 345.4C651.48 339.14 635.13 326.66 629.84 332.15C626.31 335.81 624.11 338.74 623.24 340.95C628.32 350.15 639.9 351.65 645.69 345.4Z" />
					<path id="&lt;Compound Path&gt;" fill-rule="evenodd" class="shp2" d="M1486.24 371.29C1457.18 387.3 1551.22 320.78 1160.15 354.43C1152.11 360.37 1145.26 366.84 1139.61 373.85C1127.73 388.58 1122.38 402.19 1146.5 395.71C1167.72 390.01 1173.6 387.46 1170.1 394.98C1165 405.94 1132.85 421.29 1118.15 413.64C1110.74 409.78 1108.14 403.17 1110.36 393.83C1101.9 398.92 1083.85 411.84 1071.68 414.71C1046.5 420.65 1053.93 396.36 1052.36 392.38C1050.15 386.78 1033.33 399.61 1022.18 405.97C1016.74 409.07 1011.65 411.99 1006.92 414.73C1002.15 416.17 998.46 414.49 995.84 409.68C991.92 402.46 1000.76 397.99 1009.49 390.22C1018.22 382.45 1013.13 376.81 998.29 384.8C983.45 392.8 963.17 413.88 941.93 415.03C927.77 415.8 919.73 411.87 917.8 403.25C900.68 413.03 887.35 416.96 877.81 415.03C870.26 413.51 867.84 406.98 867.97 400.79C853.53 408.46 825.41 421.32 813.19 411.75C802.78 403.6 825.75 385.81 832.34 379.11C839.74 371.57 817.07 362.02 811.69 369.98C799.15 384.23 787.23 393.5 775.92 397.81C762.38 402.96 749.53 400.65 740.72 395.31C720.56 408.67 698.16 420.11 679.06 414.15C666.94 410.38 661.28 401.24 662.08 386.73C658.9 389.18 640.78 408.62 624.17 413.88C590.94 424.42 587.95 399.81 591.75 384.92C595.88 382.44 553.43 395.62 552.38 365.88C516.56 402.65 488.19 419.08 467.29 415.17C449.96 411.93 445.67 401.31 460.16 374.46C462.63 369.89 473.82 352.55 493.73 322.47C502.52 305.33 495.05 302.87 481.38 303.22C480.57 303.28 479.77 303.33 478.97 303.39C308.05 315.72 32.08 424.25 14.47 432.02C1.81 437.61 -2.29 430.72 2.18 411.35C253.22 315.84 438 294.65 479.71 293.32C486.22 293.12 491.69 293.2 496.42 293.46L496.43 293.45C524.79 291.73 531.89 302.89 517.72 326.93C498.11 355.53 486.43 373.44 482.7 380.67C470.85 403.61 486.6 400.46 501.97 390.78C519.08 380.01 535.53 364.93 551.34 345.54C553.89 316.05 561.53 303.08 574.25 306.6C588.73 310.62 585.37 331.48 566.99 349.18C563.23 359.98 563.85 367.35 568.86 371.29C579.02 379.27 591.32 377.37 600.44 369.85C606.76 364.63 611 360.69 613.16 358.02C628.47 357.48 630.77 362.37 620.06 372.68C603.99 388.15 599.48 408.66 623.24 401.75C637.34 397.65 660.6 375.66 662.33 373.94C663.94 372.22 665.62 370.49 667.36 368.75C667.37 368.74 667.39 368.72 667.41 368.69C667.41 368.7 667.41 368.7 667.41 368.7C680.08 356.04 695.83 342.83 708.1 331.42C736.61 304.95 747.38 307.57 748.84 315.42C749.77 320.39 722.11 350.58 689.83 374.04C665.56 391.67 685.14 405.4 701.82 401.52C714.13 398.65 724.44 393.29 732.56 388.05C728.52 382.49 727.77 376.06 732.09 370.86C744.02 356.47 768.07 365.31 757.24 381.31C756.56 382.32 755.48 383.5 754.23 384.74C759.29 387.74 766.93 389.01 776.3 386.6C786.16 384.05 796.64 376.7 807.76 364.52C805.97 362.66 804.89 356.46 809.27 351.68C818.6 341.5 853.87 349.13 852.22 370.77C851.14 384.97 840.3 388.87 832.84 397.4C825.2 406.13 844.84 402.99 860.56 395.69C864.73 393.76 867.77 392.7 870.02 392.21C871.32 389.3 873.17 386.45 875.52 383.92C885.4 373.3 907.38 358.48 923.82 359.66C940.25 360.83 937.93 372.15 938.62 375.89C939.3 379.64 943.09 375.61 944.54 377.94C948.25 383.87 938.63 394.11 936.56 396.21C934.48 398.32 932.11 405.02 943.75 404.01C955.38 402.99 964.69 396.2 989.42 377.39C1014.15 358.58 1035.98 357.04 1037.25 371.29C1037.82 377.79 1034.82 385.26 1028.22 393.69C1041.02 381.48 1051.13 373.44 1058.54 369.57C1068.54 364.33 1078.1 364.58 1079.29 373.84C1080.09 380.14 1071.7 392.12 1076.28 396.33C1083.32 402.83 1111.15 383.96 1112.89 383.4C1122.98 370.28 1126.97 367.41 1139.3 354.41C1115.6 356.64 1095.76 358.55 1091.06 358.72C1083.03 359.01 1082.13 352.72 1091.32 351.47C1100.1 350.28 1114.84 349.94 1145.01 346.08C1154.69 336.08 1182.66 307.54 1187.19 316.03C1192.5 326.01 1175.97 337.74 1170.37 343.74C1194.04 341.58 1216.98 338.01 1289.69 330.79C1458.57 314.02 1514.96 355.47 1486.24 371.29ZM918.14 371.57C911.62 373.44 888.4 383.5 885.53 396.73C882.65 409.97 914.23 394.89 925.06 383.96C931.54 377.41 924.67 369.71 918.14 371.57Z" />
				</g>
			</g>
			<path id="&lt;Path&gt;" class="shp3" d="M417.52 134.04C405.47 140.51 422.04 151.05 443.47 152.43C455.5 144.51 466.46 136.66 476.35 128.86C486.1 121.17 493.58 113.59 478.78 109.98C468.92 107.57 399.58 90.72 270.77 59.44C274.01 16.37 266.69 -3.32 248.83 0.37C247.6 27.21 246.79 47.54 246.39 61.37C246.22 66.97 249.83 71.98 255.19 73.62L429.8 127.02C428.35 128.09 424.26 130.43 417.52 134.04Z" />
			<path id="&lt;Path&gt;" class="shp0" d="M193.05 131.78C191.52 146.23 186.04 156.55 176.61 162.75C168.62 168 157.92 172.97 144.53 177.66L153.02 180.56C155.98 271.45 157.37 319.44 157.21 324.54C156.96 332.18 136.25 361.23 129.34 347.7C124.74 338.68 123.62 285.84 126 189.19C120.34 184.19 117.26 178.77 116.77 172.92C116.11 165.11 141.54 151.4 193.05 131.78Z" />
			<path id="&lt;Path&gt;" class="shp4" d="M164.48 214.3C165.66 259.06 166.11 284.07 165.85 289.34C165.46 297.25 182.34 292.34 182.89 276.53C183.44 260.73 175.49 210.45 171.17 208.23C168.28 206.74 166.06 208.77 164.48 214.3Z" />
			<path id="&lt;Path&gt;" class="shp5" d="M414.35 189.74L414.83 290.72C398.22 295.82 389.01 294.01 387.21 285.3C384.49 272.23 388.76 221.96 390.24 206.91C391.72 191.87 401.96 187.03 414.35 189.74Z" />
			<path id="&lt;Path&gt;" class="shp6" d="M343.84 214.67C349.85 250.14 340.6 268.09 316.09 268.53C294.12 268.92 282.36 249.07 284.04 226.12C286.43 193.29 309.29 182.06 322.45 181.07C322.45 173.05 318.24 169.04 309.82 169.04C287.42 169.04 263.48 193.26 263.41 241.51C263.33 301.41 334.06 304.92 354.49 273.47C368.8 251.45 364.81 229.33 363.91 223.11C362.95 216.41 357.46 206.98 343.84 214.67Z" />
			<path id="&lt;Path&gt;" class="shp6" d="M323.12 240.98C317.14 246.34 308.79 246.34 298.07 240.98C294.57 234.58 299.97 231.49 314.26 231.69C313.43 209.71 316.59 199.23 323.76 200.24C328.89 222.43 328.68 236.01 323.12 240.98Z" />
			<g id="&lt;Group&gt;">
				<path id="&lt;Path&gt;" class="shp7" d="M219.87 297.38C220.12 303.8 224.94 310.06 234.15 310.03C244.5 310 245.29 293.73 245.39 287.27C245.59 274.6 246.64 149.64 245.99 127.81L226.13 137.18C221.82 240.27 219.73 293.67 219.87 297.38Z" />
				<path id="&lt;Path&gt;" class="shp8" d="M449.6 178.23C450.83 166.97 444.92 160.45 434.12 157.07C397.17 145.51 299.46 117.8 287.66 114.49C273.03 110.38 255.16 104.48 246.15 107.49C239.19 109.81 233.59 112.28 228.85 114.65C219.87 119.15 214.95 121.86 211.83 130.84L205.69 148.52C213.06 144.43 219.87 140.65 226.13 137.18L245.99 127.81C250.73 125.6 257.31 125.93 265.72 128.79C285.97 135.69 446.04 192.7 447.63 186.88C448.43 183.98 449.31 180.81 449.6 178.23Z" />
			</g>
			<path id="&lt;Path&gt;" class="shp9" d="M242.22 82.47C231.82 79.4 220.73 79.58 210.44 83.01C175.06 94.8 81.15 120.95 74.6 122.68C61.69 126.09 57.94 129.52 57.61 132.04C56.76 138.58 92.94 144.36 99.5 144.36C101.01 144.36 205.55 105.19 242.7 91.25C246.85 89.7 246.63 83.78 242.38 82.52C242.33 82.51 242.27 82.49 242.22 82.47Z" />
		</g>
	</g>
</svg>